<svg width="19" height="19" viewBox="0 0 19 19" fill="none" xmlns="http://www.w3.org/2000/svg">
<path d="M4.19745 6.60376C3.55882 5.75225 4.16639 4.53711 5.23078 4.53711H13.6696C14.734 4.53711 15.3416 5.75225 14.7029 6.60376V6.60376C14.2371 7.22482 13.9854 7.9802 13.9854 8.75653V13.6074C13.9854 15.2772 12.6317 16.6309 10.9619 16.6309H7.93848C6.26868 16.6309 4.91504 15.2772 4.91504 13.6074V8.75653C4.91504 7.9802 4.66325 7.22482 4.19745 6.60376V6.60376Z" stroke="white" stroke-width="1.13379"/>
<path d="M10.9619 12.8516L10.9619 8.31641" stroke="white" stroke-width="1.13379" stroke-linecap="round" stroke-linejoin="round"/>
<path d="M7.93848 12.8516L7.93848 8.31641" stroke="white" stroke-width="1.13379" stroke-linecap="round" stroke-linejoin="round"/>
<path d="M12.4736 4.53711L12.0623 3.3032C11.8566 2.6859 11.2789 2.26953 10.6282 2.26953H8.2722C7.62151 2.26953 7.04383 2.6859 6.83806 3.3032L6.42676 4.53711" stroke="white" stroke-width="1.13379" stroke-linecap="round"/>
</svg>
