<svg width="18" height="18" viewBox="0 0 18 18" fill="none" xmlns="http://www.w3.org/2000/svg">
<path d="M14.6811 7.28802C14.6811 7.28802 14.2738 12.3393 14.0376 14.467C13.9251 15.4833 13.2973 16.0788 12.2691 16.0975C10.3123 16.1328 8.35334 16.135 6.39734 16.0938C5.40809 16.0735 4.79084 15.4705 4.68059 14.4723C4.44284 12.3258 4.03784 7.28802 4.03784 7.28802" stroke="#A0A0A0" stroke-width="1.125" stroke-linecap="round" stroke-linejoin="round"/>
<path d="M15.7185 4.86665H3" stroke="#A0A0A0" stroke-width="1.125" stroke-linecap="round" stroke-linejoin="round"/>
<path d="M13.2677 4.86666C12.6789 4.86666 12.1719 4.45041 12.0564 3.87366L11.8742 2.96166C11.7617 2.54091 11.3807 2.24991 10.9464 2.24991H7.77169C7.33744 2.24991 6.95644 2.54091 6.84394 2.96166L6.66169 3.87366C6.54619 4.45041 6.03919 4.86666 5.45044 4.86666" stroke="#A0A0A0" stroke-width="1.125" stroke-linecap="round" stroke-linejoin="round"/>
</svg>
