<svg width="36" height="36" viewBox="0 0 36 36" fill="none" xmlns="http://www.w3.org/2000/svg">
<path d="M29.025 15.06C28.5211 12.5066 27.1464 10.2073 25.1356 8.55487C23.1248 6.90245 20.6027 5.99941 18 6C13.665 6 9.9 8.46 8.025 12.06C5.82035 12.2982 3.78151 13.3428 2.30023 14.993C0.818957 16.6432 -0.000257553 18.7825 6.07391e-08 21C6.07391e-08 25.965 4.035 30 9 30H28.5C32.64 30 36 26.64 36 22.5C36 18.54 32.925 15.33 29.025 15.06ZM21 19.5V25.5H15V19.5H10.5L18 12L25.5 19.5H21Z" fill="#2563EB"/>
</svg>
